<?xml version="1.0" encoding="utf-8" standalone="no"?>
<!DOCTYPE svg PUBLIC "-//W3C//DTD SVG 1.1//EN"
  "http://www.w3.org/Graphics/SVG/1.1/DTD/svg11.dtd">
<svg height="720pt" version="1.1" viewBox="0 0 720 720" width="720pt" xmlns="http://www.w3.org/2000/svg" xmlns:xlink="http://www.w3.org/1999/xlink">
 <metadata>
  <rdf:RDF xmlns:cc="http://creativecommons.org/ns#" xmlns:dc="http://purl.org/dc/elements/1.1/" xmlns:rdf="http://www.w3.org/1999/02/22-rdf-syntax-ns#">
   <cc:Work>
    <dc:type rdf:resource="http://purl.org/dc/dcmitype/StillImage"/>
    <dc:date>2023-09-03T22:03:07.568505</dc:date>
    <dc:format>image/svg+xml</dc:format>
    <dc:creator>
     <cc:Agent>
      <dc:title>Matplotlib v3.4.3, https://matplotlib.org/</dc:title>
     </cc:Agent>
    </dc:creator>
   </cc:Work>
  </rdf:RDF>
 </metadata>
 <defs>
  <style type="text/css">*{stroke-linecap:butt;stroke-linejoin:round;}</style>
 </defs>
 <g id="figure_1">
  <g id="patch_1">
   <path d="M 0 720 
L 720 720 
L 720 0 
L 0 0 
z
" style="fill:none;"/>
  </g>
  <g id="axes_1">
   <g id="patch_2">
    <path d="M 0 720 
L 720 720 
L 720 0 
L 0 0 
z
" style="fill:#ffffff;"/>
   </g>
   <g id="PathCollection_1">
    <defs>
     <path d="M 0 3 
C 0.795609 3 1.55874 2.683901 2.12132 2.12132 
C 2.683901 1.55874 3 0.795609 3 0 
C 3 -0.795609 2.683901 -1.55874 2.12132 -2.12132 
C 1.55874 -2.683901 0.795609 -3 0 -3 
C -0.795609 -3 -1.55874 -2.683901 -2.12132 -2.12132 
C -2.683901 -1.55874 -3 -0.795609 -3 0 
C -3 0.795609 -2.683901 1.55874 -2.12132 2.12132 
C -1.55874 2.683901 -0.795609 3 0 3 
z
" id="mcbc9c012a3" style="stroke:#ffa500;"/>
    </defs>
    <g clip-path="url(#pb4303acec3)">
     <use style="fill:#ffa500;stroke:#ffa500;" x="72" xlink:href="#mcbc9c012a3" y="288"/>
     <use style="fill:#ffa500;stroke:#ffa500;" x="90" xlink:href="#mcbc9c012a3" y="288"/>
     <use style="fill:#ffa500;stroke:#ffa500;" x="108" xlink:href="#mcbc9c012a3" y="288"/>
     <use style="fill:#ffa500;stroke:#ffa500;" x="126" xlink:href="#mcbc9c012a3" y="288"/>
     <use style="fill:#ffa500;stroke:#ffa500;" x="144" xlink:href="#mcbc9c012a3" y="288"/>
     <use style="fill:#ffa500;stroke:#ffa500;" x="162" xlink:href="#mcbc9c012a3" y="288"/>
     <use style="fill:#ffa500;stroke:#ffa500;" x="180" xlink:href="#mcbc9c012a3" y="288"/>
     <use style="fill:#ffa500;stroke:#ffa500;" x="198" xlink:href="#mcbc9c012a3" y="288"/>
     <use style="fill:#ffa500;stroke:#ffa500;" x="216" xlink:href="#mcbc9c012a3" y="288"/>
    </g>
   </g>
   <g id="PathCollection_2">
    <defs>
     <path d="M 0 3 
C 0.795609 3 1.55874 2.683901 2.12132 2.12132 
C 2.683901 1.55874 3 0.795609 3 0 
C 3 -0.795609 2.683901 -1.55874 2.12132 -2.12132 
C 1.55874 -2.683901 0.795609 -3 0 -3 
C -0.795609 -3 -1.55874 -2.683901 -2.12132 -2.12132 
C -2.683901 -1.55874 -3 -0.795609 -3 0 
C -3 0.795609 -2.683901 1.55874 -2.12132 2.12132 
C -1.55874 2.683901 -0.795609 3 0 3 
z
" id="m7723412d40" style="stroke:#008080;"/>
    </defs>
    <g clip-path="url(#pb4303acec3)">
     <use style="fill:#008080;stroke:#008080;" x="194.4" xlink:href="#m7723412d40" y="504"/>
     <use style="fill:#008080;stroke:#008080;" x="182.60864" xlink:href="#m7723412d40" y="471.603504"/>
     <use style="fill:#008080;stroke:#008080;" x="152.751868" xlink:href="#m7723412d40" y="454.365689"/>
     <use style="fill:#008080;stroke:#008080;" x="118.8" xlink:href="#m7723412d40" y="460.35232"/>
     <use style="fill:#008080;stroke:#008080;" x="96.639492" xlink:href="#m7723412d40" y="486.762185"/>
     <use style="fill:#008080;stroke:#008080;" x="96.639492" xlink:href="#m7723412d40" y="521.237815"/>
     <use style="fill:#008080;stroke:#008080;" x="118.8" xlink:href="#m7723412d40" y="547.64768"/>
     <use style="fill:#008080;stroke:#008080;" x="152.751868" xlink:href="#m7723412d40" y="553.634311"/>
     <use style="fill:#008080;stroke:#008080;" x="182.60864" xlink:href="#m7723412d40" y="536.396496"/>
     <use style="fill:#008080;stroke:#008080;" x="194.4" xlink:href="#m7723412d40" y="504"/>
    </g>
   </g>
   <g id="PathCollection_3">
    <g clip-path="url(#pb4303acec3)">
     <use style="fill:#ffa500;stroke:#ffa500;" x="194.4" xlink:href="#mcbc9c012a3" y="648"/>
     <use style="fill:#ffa500;stroke:#ffa500;" x="182.60864" xlink:href="#mcbc9c012a3" y="615.603504"/>
     <use style="fill:#ffa500;stroke:#ffa500;" x="152.751868" xlink:href="#mcbc9c012a3" y="598.365689"/>
     <use style="fill:#ffa500;stroke:#ffa500;" x="118.8" xlink:href="#mcbc9c012a3" y="604.35232"/>
     <use style="fill:#ffa500;stroke:#ffa500;" x="96.639492" xlink:href="#mcbc9c012a3" y="630.762185"/>
     <use style="fill:#ffa500;stroke:#ffa500;" x="96.639492" xlink:href="#mcbc9c012a3" y="665.237815"/>
     <use style="fill:#ffa500;stroke:#ffa500;" x="118.8" xlink:href="#mcbc9c012a3" y="691.64768"/>
     <use style="fill:#ffa500;stroke:#ffa500;" x="152.751868" xlink:href="#mcbc9c012a3" y="697.634311"/>
     <use style="fill:#ffa500;stroke:#ffa500;" x="182.60864" xlink:href="#mcbc9c012a3" y="680.396496"/>
     <use style="fill:#ffa500;stroke:#ffa500;" x="194.4" xlink:href="#mcbc9c012a3" y="648"/>
    </g>
   </g>
   <g id="PathCollection_4">
    <g clip-path="url(#pb4303acec3)">
     <use style="fill:#008080;stroke:#008080;" x="504" xlink:href="#m7723412d40" y="504"/>
     <use style="fill:#008080;stroke:#008080;" x="522" xlink:href="#m7723412d40" y="504"/>
     <use style="fill:#008080;stroke:#008080;" x="540" xlink:href="#m7723412d40" y="504"/>
     <use style="fill:#008080;stroke:#008080;" x="558" xlink:href="#m7723412d40" y="504"/>
     <use style="fill:#008080;stroke:#008080;" x="576" xlink:href="#m7723412d40" y="504"/>
     <use style="fill:#008080;stroke:#008080;" x="594" xlink:href="#m7723412d40" y="504"/>
     <use style="fill:#008080;stroke:#008080;" x="612" xlink:href="#m7723412d40" y="504"/>
     <use style="fill:#008080;stroke:#008080;" x="630" xlink:href="#m7723412d40" y="504"/>
     <use style="fill:#008080;stroke:#008080;" x="648" xlink:href="#m7723412d40" y="504"/>
    </g>
   </g>
   <g id="patch_3">
    <path clip-path="url(#pb4303acec3)" d="M 493.2 144 
L 504 140.4 
L 504 143.964 
L 576 143.964 
L 576 144.036 
L 504 144.036 
L 504 147.6 
z
" style="fill:#008080;stroke:#008080;stroke-linejoin:miter;"/>
   </g>
   <g id="patch_4">
    <path clip-path="url(#pb4303acec3)" d="M 658.8 144 
L 648 147.6 
L 648 144.036 
L 576 144.036 
L 576 143.964 
L 648 143.964 
L 648 140.4 
z
" style="fill:#008080;stroke:#008080;stroke-linejoin:miter;"/>
   </g>
   <g id="patch_5">
    <path clip-path="url(#pb4303acec3)" d="M 493.2 216 
L 504 212.4 
L 504 215.964 
L 576 215.964 
L 576 216.036 
L 504 216.036 
L 504 219.6 
z
" style="fill:#ffa500;stroke:#ffa500;stroke-linejoin:miter;"/>
   </g>
   <g id="patch_6">
    <path clip-path="url(#pb4303acec3)" d="M 658.8 216 
L 648 219.6 
L 648 216.036 
L 576 216.036 
L 576 215.964 
L 648 215.964 
L 648 212.4 
z
" style="fill:#ffa500;stroke:#ffa500;stroke-linejoin:miter;"/>
   </g>
   <g id="matplotlib.axis_1">
    <g id="xtick_1"/>
    <g id="xtick_2"/>
    <g id="xtick_3"/>
    <g id="xtick_4"/>
    <g id="xtick_5"/>
    <g id="xtick_6"/>
   </g>
   <g id="matplotlib.axis_2">
    <g id="ytick_1"/>
    <g id="ytick_2"/>
    <g id="ytick_3"/>
    <g id="ytick_4"/>
    <g id="ytick_5"/>
    <g id="ytick_6"/>
   </g>
   <g id="line2d_1">
    <path clip-path="url(#pb4303acec3)" d="M 216 144 
L 215.408881 134.792844 
L 213.64523 125.73687 
L 210.738007 116.980776 
L 206.734947 108.668336 
L 201.701781 100.936042 
L 195.721153 93.910856 
L 188.891266 87.708133 
L 181.324265 82.429721 
L 173.144401 78.162291 
L 164.485986 74.975915 
L 155.491192 72.922912 
L 146.307714 72.036992 
L 137.086342 72.332704 
L 127.978493 73.80519 
L 119.133716 76.430274 
L 110.697243 80.16485 
L 102.8076 84.947598 
L 95.594336 90.699984 
L 89.175891 97.327556 
L 83.657656 104.721487 
L 79.130242 112.760371 
L 75.667986 121.312208 
L 73.327741 130.236579 
L 72.147932 139.386944 
L 72.147932 148.613056 
L 73.327741 157.763421 
L 75.667986 166.687792 
L 79.130242 175.239629 
L 83.657656 183.278513 
L 89.175891 190.672444 
L 95.594336 197.300016 
L 102.8076 203.052402 
L 110.697243 207.83515 
L 119.133716 211.569726 
L 127.978493 214.19481 
L 137.086342 215.667296 
L 146.307714 215.963008 
L 155.491192 215.077088 
L 164.485986 213.024085 
L 173.144401 209.837709 
L 181.324265 205.570279 
L 188.891266 200.291867 
L 195.721153 194.089144 
L 201.701781 187.063958 
L 206.734947 179.331664 
L 210.738007 171.019224 
L 213.64523 162.26313 
L 215.408881 153.207156 
L 216 144 
" style="fill:none;stroke:#008080;stroke-linecap:square;stroke-width:1.5;"/>
   </g>
   <g id="patch_7">
    <path d="M 0 720 
L 0 0 
" style="fill:none;stroke:#000000;stroke-linecap:square;stroke-linejoin:miter;stroke-width:0.8;"/>
   </g>
   <g id="patch_8">
    <path d="M 720 720 
L 720 0 
" style="fill:none;stroke:#000000;stroke-linecap:square;stroke-linejoin:miter;stroke-width:0.8;"/>
   </g>
   <g id="patch_9">
    <path d="M 0 720 
L 720 720 
" style="fill:none;stroke:#000000;stroke-linecap:square;stroke-linejoin:miter;stroke-width:0.8;"/>
   </g>
   <g id="patch_10">
    <path d="M 0 0 
L 720 0 
" style="fill:none;stroke:#000000;stroke-linecap:square;stroke-linejoin:miter;stroke-width:0.8;"/>
   </g>
   <g id="text_1">
    <!-- Fourier series -->
    <g transform="translate(89.7675 36)scale(0.16 -0.16)">
     <defs>
      <path d="M 628 4666 
L 3309 4666 
L 3309 4134 
L 1259 4134 
L 1259 2759 
L 3109 2759 
L 3109 2228 
L 1259 2228 
L 1259 0 
L 628 0 
L 628 4666 
z
" id="DejaVuSans-46" transform="scale(0.015625)"/>
      <path d="M 1959 3097 
Q 1497 3097 1228 2736 
Q 959 2375 959 1747 
Q 959 1119 1226 758 
Q 1494 397 1959 397 
Q 2419 397 2687 759 
Q 2956 1122 2956 1747 
Q 2956 2369 2687 2733 
Q 2419 3097 1959 3097 
z
M 1959 3584 
Q 2709 3584 3137 3096 
Q 3566 2609 3566 1747 
Q 3566 888 3137 398 
Q 2709 -91 1959 -91 
Q 1206 -91 779 398 
Q 353 888 353 1747 
Q 353 2609 779 3096 
Q 1206 3584 1959 3584 
z
" id="DejaVuSans-6f" transform="scale(0.015625)"/>
      <path d="M 544 1381 
L 544 3500 
L 1119 3500 
L 1119 1403 
Q 1119 906 1312 657 
Q 1506 409 1894 409 
Q 2359 409 2629 706 
Q 2900 1003 2900 1516 
L 2900 3500 
L 3475 3500 
L 3475 0 
L 2900 0 
L 2900 538 
Q 2691 219 2414 64 
Q 2138 -91 1772 -91 
Q 1169 -91 856 284 
Q 544 659 544 1381 
z
M 1991 3584 
L 1991 3584 
z
" id="DejaVuSans-75" transform="scale(0.015625)"/>
      <path d="M 2631 2963 
Q 2534 3019 2420 3045 
Q 2306 3072 2169 3072 
Q 1681 3072 1420 2755 
Q 1159 2438 1159 1844 
L 1159 0 
L 581 0 
L 581 3500 
L 1159 3500 
L 1159 2956 
Q 1341 3275 1631 3429 
Q 1922 3584 2338 3584 
Q 2397 3584 2469 3576 
Q 2541 3569 2628 3553 
L 2631 2963 
z
" id="DejaVuSans-72" transform="scale(0.015625)"/>
      <path d="M 603 3500 
L 1178 3500 
L 1178 0 
L 603 0 
L 603 3500 
z
M 603 4863 
L 1178 4863 
L 1178 4134 
L 603 4134 
L 603 4863 
z
" id="DejaVuSans-69" transform="scale(0.015625)"/>
      <path d="M 3597 1894 
L 3597 1613 
L 953 1613 
Q 991 1019 1311 708 
Q 1631 397 2203 397 
Q 2534 397 2845 478 
Q 3156 559 3463 722 
L 3463 178 
Q 3153 47 2828 -22 
Q 2503 -91 2169 -91 
Q 1331 -91 842 396 
Q 353 884 353 1716 
Q 353 2575 817 3079 
Q 1281 3584 2069 3584 
Q 2775 3584 3186 3129 
Q 3597 2675 3597 1894 
z
M 3022 2063 
Q 3016 2534 2758 2815 
Q 2500 3097 2075 3097 
Q 1594 3097 1305 2825 
Q 1016 2553 972 2059 
L 3022 2063 
z
" id="DejaVuSans-65" transform="scale(0.015625)"/>
      <path id="DejaVuSans-20" transform="scale(0.015625)"/>
      <path d="M 2834 3397 
L 2834 2853 
Q 2591 2978 2328 3040 
Q 2066 3103 1784 3103 
Q 1356 3103 1142 2972 
Q 928 2841 928 2578 
Q 928 2378 1081 2264 
Q 1234 2150 1697 2047 
L 1894 2003 
Q 2506 1872 2764 1633 
Q 3022 1394 3022 966 
Q 3022 478 2636 193 
Q 2250 -91 1575 -91 
Q 1294 -91 989 -36 
Q 684 19 347 128 
L 347 722 
Q 666 556 975 473 
Q 1284 391 1588 391 
Q 1994 391 2212 530 
Q 2431 669 2431 922 
Q 2431 1156 2273 1281 
Q 2116 1406 1581 1522 
L 1381 1569 
Q 847 1681 609 1914 
Q 372 2147 372 2553 
Q 372 3047 722 3315 
Q 1072 3584 1716 3584 
Q 2034 3584 2315 3537 
Q 2597 3491 2834 3397 
z
" id="DejaVuSans-73" transform="scale(0.015625)"/>
     </defs>
     <use xlink:href="#DejaVuSans-46"/>
     <use x="53.894531" xlink:href="#DejaVuSans-6f"/>
     <use x="115.076172" xlink:href="#DejaVuSans-75"/>
     <use x="178.455078" xlink:href="#DejaVuSans-72"/>
     <use x="219.568359" xlink:href="#DejaVuSans-69"/>
     <use x="247.351562" xlink:href="#DejaVuSans-65"/>
     <use x="308.875" xlink:href="#DejaVuSans-72"/>
     <use x="349.988281" xlink:href="#DejaVuSans-20"/>
     <use x="381.775391" xlink:href="#DejaVuSans-73"/>
     <use x="433.875" xlink:href="#DejaVuSans-65"/>
     <use x="495.398438" xlink:href="#DejaVuSans-72"/>
     <use x="536.511719" xlink:href="#DejaVuSans-69"/>
     <use x="564.294922" xlink:href="#DejaVuSans-65"/>
     <use x="625.818359" xlink:href="#DejaVuSans-73"/>
    </g>
   </g>
   <g id="text_2">
    <!-- time period: $T$ -->
    <g style="fill:#008080;" transform="translate(172.8 72)scale(0.1 -0.1)">
     <defs>
      <path d="M 1172 4494 
L 1172 3500 
L 2356 3500 
L 2356 3053 
L 1172 3053 
L 1172 1153 
Q 1172 725 1289 603 
Q 1406 481 1766 481 
L 2356 481 
L 2356 0 
L 1766 0 
Q 1100 0 847 248 
Q 594 497 594 1153 
L 594 3053 
L 172 3053 
L 172 3500 
L 594 3500 
L 594 4494 
L 1172 4494 
z
" id="DejaVuSans-74" transform="scale(0.015625)"/>
      <path d="M 3328 2828 
Q 3544 3216 3844 3400 
Q 4144 3584 4550 3584 
Q 5097 3584 5394 3201 
Q 5691 2819 5691 2113 
L 5691 0 
L 5113 0 
L 5113 2094 
Q 5113 2597 4934 2840 
Q 4756 3084 4391 3084 
Q 3944 3084 3684 2787 
Q 3425 2491 3425 1978 
L 3425 0 
L 2847 0 
L 2847 2094 
Q 2847 2600 2669 2842 
Q 2491 3084 2119 3084 
Q 1678 3084 1418 2786 
Q 1159 2488 1159 1978 
L 1159 0 
L 581 0 
L 581 3500 
L 1159 3500 
L 1159 2956 
Q 1356 3278 1631 3431 
Q 1906 3584 2284 3584 
Q 2666 3584 2933 3390 
Q 3200 3197 3328 2828 
z
" id="DejaVuSans-6d" transform="scale(0.015625)"/>
      <path d="M 1159 525 
L 1159 -1331 
L 581 -1331 
L 581 3500 
L 1159 3500 
L 1159 2969 
Q 1341 3281 1617 3432 
Q 1894 3584 2278 3584 
Q 2916 3584 3314 3078 
Q 3713 2572 3713 1747 
Q 3713 922 3314 415 
Q 2916 -91 2278 -91 
Q 1894 -91 1617 61 
Q 1341 213 1159 525 
z
M 3116 1747 
Q 3116 2381 2855 2742 
Q 2594 3103 2138 3103 
Q 1681 3103 1420 2742 
Q 1159 2381 1159 1747 
Q 1159 1113 1420 752 
Q 1681 391 2138 391 
Q 2594 391 2855 752 
Q 3116 1113 3116 1747 
z
" id="DejaVuSans-70" transform="scale(0.015625)"/>
      <path d="M 2906 2969 
L 2906 4863 
L 3481 4863 
L 3481 0 
L 2906 0 
L 2906 525 
Q 2725 213 2448 61 
Q 2172 -91 1784 -91 
Q 1150 -91 751 415 
Q 353 922 353 1747 
Q 353 2572 751 3078 
Q 1150 3584 1784 3584 
Q 2172 3584 2448 3432 
Q 2725 3281 2906 2969 
z
M 947 1747 
Q 947 1113 1208 752 
Q 1469 391 1925 391 
Q 2381 391 2643 752 
Q 2906 1113 2906 1747 
Q 2906 2381 2643 2742 
Q 2381 3103 1925 3103 
Q 1469 3103 1208 2742 
Q 947 2381 947 1747 
z
" id="DejaVuSans-64" transform="scale(0.015625)"/>
      <path d="M 750 794 
L 1409 794 
L 1409 0 
L 750 0 
L 750 794 
z
M 750 3309 
L 1409 3309 
L 1409 2516 
L 750 2516 
L 750 3309 
z
" id="DejaVuSans-3a" transform="scale(0.015625)"/>
      <path d="M 378 4666 
L 4325 4666 
L 4225 4134 
L 2559 4134 
L 1759 0 
L 1125 0 
L 1925 4134 
L 275 4134 
L 378 4666 
z
" id="DejaVuSans-Oblique-54" transform="scale(0.015625)"/>
     </defs>
     <use transform="translate(0 0.015625)" xlink:href="#DejaVuSans-74"/>
     <use transform="translate(39.208984 0.015625)" xlink:href="#DejaVuSans-69"/>
     <use transform="translate(66.992188 0.015625)" xlink:href="#DejaVuSans-6d"/>
     <use transform="translate(164.404297 0.015625)" xlink:href="#DejaVuSans-65"/>
     <use transform="translate(225.927734 0.015625)" xlink:href="#DejaVuSans-20"/>
     <use transform="translate(257.714844 0.015625)" xlink:href="#DejaVuSans-70"/>
     <use transform="translate(321.191406 0.015625)" xlink:href="#DejaVuSans-65"/>
     <use transform="translate(382.714844 0.015625)" xlink:href="#DejaVuSans-72"/>
     <use transform="translate(423.828125 0.015625)" xlink:href="#DejaVuSans-69"/>
     <use transform="translate(451.611328 0.015625)" xlink:href="#DejaVuSans-6f"/>
     <use transform="translate(512.792969 0.015625)" xlink:href="#DejaVuSans-64"/>
     <use transform="translate(576.269531 0.015625)" xlink:href="#DejaVuSans-3a"/>
     <use transform="translate(609.960938 0.015625)" xlink:href="#DejaVuSans-20"/>
     <use transform="translate(641.748047 0.015625)" xlink:href="#DejaVuSans-Oblique-54"/>
    </g>
   </g>
   <g id="text_3">
    <!-- freq spacing: $1/T$ -->
    <g style="fill:#ffa500;" transform="translate(172.8 273.6)scale(0.1 -0.1)">
     <defs>
      <path d="M 2375 4863 
L 2375 4384 
L 1825 4384 
Q 1516 4384 1395 4259 
Q 1275 4134 1275 3809 
L 1275 3500 
L 2222 3500 
L 2222 3053 
L 1275 3053 
L 1275 0 
L 697 0 
L 697 3053 
L 147 3053 
L 147 3500 
L 697 3500 
L 697 3744 
Q 697 4328 969 4595 
Q 1241 4863 1831 4863 
L 2375 4863 
z
" id="DejaVuSans-66" transform="scale(0.015625)"/>
      <path d="M 947 1747 
Q 947 1113 1208 752 
Q 1469 391 1925 391 
Q 2381 391 2643 752 
Q 2906 1113 2906 1747 
Q 2906 2381 2643 2742 
Q 2381 3103 1925 3103 
Q 1469 3103 1208 2742 
Q 947 2381 947 1747 
z
M 2906 525 
Q 2725 213 2448 61 
Q 2172 -91 1784 -91 
Q 1150 -91 751 415 
Q 353 922 353 1747 
Q 353 2572 751 3078 
Q 1150 3584 1784 3584 
Q 2172 3584 2448 3432 
Q 2725 3281 2906 2969 
L 2906 3500 
L 3481 3500 
L 3481 -1331 
L 2906 -1331 
L 2906 525 
z
" id="DejaVuSans-71" transform="scale(0.015625)"/>
      <path d="M 2194 1759 
Q 1497 1759 1228 1600 
Q 959 1441 959 1056 
Q 959 750 1161 570 
Q 1363 391 1709 391 
Q 2188 391 2477 730 
Q 2766 1069 2766 1631 
L 2766 1759 
L 2194 1759 
z
M 3341 1997 
L 3341 0 
L 2766 0 
L 2766 531 
Q 2569 213 2275 61 
Q 1981 -91 1556 -91 
Q 1019 -91 701 211 
Q 384 513 384 1019 
Q 384 1609 779 1909 
Q 1175 2209 1959 2209 
L 2766 2209 
L 2766 2266 
Q 2766 2663 2505 2880 
Q 2244 3097 1772 3097 
Q 1472 3097 1187 3025 
Q 903 2953 641 2809 
L 641 3341 
Q 956 3463 1253 3523 
Q 1550 3584 1831 3584 
Q 2591 3584 2966 3190 
Q 3341 2797 3341 1997 
z
" id="DejaVuSans-61" transform="scale(0.015625)"/>
      <path d="M 3122 3366 
L 3122 2828 
Q 2878 2963 2633 3030 
Q 2388 3097 2138 3097 
Q 1578 3097 1268 2742 
Q 959 2388 959 1747 
Q 959 1106 1268 751 
Q 1578 397 2138 397 
Q 2388 397 2633 464 
Q 2878 531 3122 666 
L 3122 134 
Q 2881 22 2623 -34 
Q 2366 -91 2075 -91 
Q 1284 -91 818 406 
Q 353 903 353 1747 
Q 353 2603 823 3093 
Q 1294 3584 2113 3584 
Q 2378 3584 2631 3529 
Q 2884 3475 3122 3366 
z
" id="DejaVuSans-63" transform="scale(0.015625)"/>
      <path d="M 3513 2113 
L 3513 0 
L 2938 0 
L 2938 2094 
Q 2938 2591 2744 2837 
Q 2550 3084 2163 3084 
Q 1697 3084 1428 2787 
Q 1159 2491 1159 1978 
L 1159 0 
L 581 0 
L 581 3500 
L 1159 3500 
L 1159 2956 
Q 1366 3272 1645 3428 
Q 1925 3584 2291 3584 
Q 2894 3584 3203 3211 
Q 3513 2838 3513 2113 
z
" id="DejaVuSans-6e" transform="scale(0.015625)"/>
      <path d="M 2906 1791 
Q 2906 2416 2648 2759 
Q 2391 3103 1925 3103 
Q 1463 3103 1205 2759 
Q 947 2416 947 1791 
Q 947 1169 1205 825 
Q 1463 481 1925 481 
Q 2391 481 2648 825 
Q 2906 1169 2906 1791 
z
M 3481 434 
Q 3481 -459 3084 -895 
Q 2688 -1331 1869 -1331 
Q 1566 -1331 1297 -1286 
Q 1028 -1241 775 -1147 
L 775 -588 
Q 1028 -725 1275 -790 
Q 1522 -856 1778 -856 
Q 2344 -856 2625 -561 
Q 2906 -266 2906 331 
L 2906 616 
Q 2728 306 2450 153 
Q 2172 0 1784 0 
Q 1141 0 747 490 
Q 353 981 353 1791 
Q 353 2603 747 3093 
Q 1141 3584 1784 3584 
Q 2172 3584 2450 3431 
Q 2728 3278 2906 2969 
L 2906 3500 
L 3481 3500 
L 3481 434 
z
" id="DejaVuSans-67" transform="scale(0.015625)"/>
      <path d="M 794 531 
L 1825 531 
L 1825 4091 
L 703 3866 
L 703 4441 
L 1819 4666 
L 2450 4666 
L 2450 531 
L 3481 531 
L 3481 0 
L 794 0 
L 794 531 
z
" id="DejaVuSans-31" transform="scale(0.015625)"/>
      <path d="M 1625 4666 
L 2156 4666 
L 531 -594 
L 0 -594 
L 1625 4666 
z
" id="DejaVuSans-2f" transform="scale(0.015625)"/>
     </defs>
     <use transform="translate(0 0.015625)" xlink:href="#DejaVuSans-66"/>
     <use transform="translate(35.205078 0.015625)" xlink:href="#DejaVuSans-72"/>
     <use transform="translate(76.318359 0.015625)" xlink:href="#DejaVuSans-65"/>
     <use transform="translate(137.841797 0.015625)" xlink:href="#DejaVuSans-71"/>
     <use transform="translate(201.318359 0.015625)" xlink:href="#DejaVuSans-20"/>
     <use transform="translate(233.105469 0.015625)" xlink:href="#DejaVuSans-73"/>
     <use transform="translate(285.205078 0.015625)" xlink:href="#DejaVuSans-70"/>
     <use transform="translate(348.681641 0.015625)" xlink:href="#DejaVuSans-61"/>
     <use transform="translate(409.960938 0.015625)" xlink:href="#DejaVuSans-63"/>
     <use transform="translate(464.941406 0.015625)" xlink:href="#DejaVuSans-69"/>
     <use transform="translate(492.724609 0.015625)" xlink:href="#DejaVuSans-6e"/>
     <use transform="translate(556.103516 0.015625)" xlink:href="#DejaVuSans-67"/>
     <use transform="translate(619.580078 0.015625)" xlink:href="#DejaVuSans-3a"/>
     <use transform="translate(653.271484 0.015625)" xlink:href="#DejaVuSans-20"/>
     <use transform="translate(685.058594 0.015625)" xlink:href="#DejaVuSans-31"/>
     <use transform="translate(748.681641 0.015625)" xlink:href="#DejaVuSans-2f"/>
     <use transform="translate(782.373047 0.015625)" xlink:href="#DejaVuSans-Oblique-54"/>
    </g>
   </g>
   <g id="text_4">
    <!-- Discrete Fourier Transform -->
    <g transform="translate(38.09 417.6)scale(0.16 -0.16)">
     <defs>
      <path d="M 1259 4147 
L 1259 519 
L 2022 519 
Q 2988 519 3436 956 
Q 3884 1394 3884 2338 
Q 3884 3275 3436 3711 
Q 2988 4147 2022 4147 
L 1259 4147 
z
M 628 4666 
L 1925 4666 
Q 3281 4666 3915 4102 
Q 4550 3538 4550 2338 
Q 4550 1131 3912 565 
Q 3275 0 1925 0 
L 628 0 
L 628 4666 
z
" id="DejaVuSans-44" transform="scale(0.015625)"/>
      <path d="M -19 4666 
L 3928 4666 
L 3928 4134 
L 2272 4134 
L 2272 0 
L 1638 0 
L 1638 4134 
L -19 4134 
L -19 4666 
z
" id="DejaVuSans-54" transform="scale(0.015625)"/>
     </defs>
     <use xlink:href="#DejaVuSans-44"/>
     <use x="77.001953" xlink:href="#DejaVuSans-69"/>
     <use x="104.785156" xlink:href="#DejaVuSans-73"/>
     <use x="156.884766" xlink:href="#DejaVuSans-63"/>
     <use x="211.865234" xlink:href="#DejaVuSans-72"/>
     <use x="250.728516" xlink:href="#DejaVuSans-65"/>
     <use x="312.251953" xlink:href="#DejaVuSans-74"/>
     <use x="351.460938" xlink:href="#DejaVuSans-65"/>
     <use x="412.984375" xlink:href="#DejaVuSans-20"/>
     <use x="444.771484" xlink:href="#DejaVuSans-46"/>
     <use x="498.666016" xlink:href="#DejaVuSans-6f"/>
     <use x="559.847656" xlink:href="#DejaVuSans-75"/>
     <use x="623.226562" xlink:href="#DejaVuSans-72"/>
     <use x="664.339844" xlink:href="#DejaVuSans-69"/>
     <use x="692.123047" xlink:href="#DejaVuSans-65"/>
     <use x="753.646484" xlink:href="#DejaVuSans-72"/>
     <use x="794.759766" xlink:href="#DejaVuSans-20"/>
     <use x="826.546875" xlink:href="#DejaVuSans-54"/>
     <use x="872.880859" xlink:href="#DejaVuSans-72"/>
     <use x="913.994141" xlink:href="#DejaVuSans-61"/>
     <use x="975.273438" xlink:href="#DejaVuSans-6e"/>
     <use x="1038.652344" xlink:href="#DejaVuSans-73"/>
     <use x="1090.751953" xlink:href="#DejaVuSans-66"/>
     <use x="1125.957031" xlink:href="#DejaVuSans-6f"/>
     <use x="1187.138672" xlink:href="#DejaVuSans-72"/>
     <use x="1226.501953" xlink:href="#DejaVuSans-6d"/>
    </g>
   </g>
   <g id="text_5">
    <!-- time spacing: $\Delta t$ -->
    <g style="fill:#008080;" transform="translate(172.8 453.6)scale(0.1 -0.1)">
     <defs>
      <path d="M 2188 4044 
L 906 525 
L 3472 525 
L 2188 4044 
z
M 50 0 
L 1831 4666 
L 2547 4666 
L 4325 0 
L 50 0 
z
" id="DejaVuSans-394" transform="scale(0.015625)"/>
      <path d="M 2706 3500 
L 2619 3053 
L 1472 3053 
L 1100 1153 
Q 1081 1047 1072 975 
Q 1063 903 1063 863 
Q 1063 663 1183 572 
Q 1303 481 1569 481 
L 2150 481 
L 2053 0 
L 1503 0 
Q 991 0 739 200 
Q 488 400 488 806 
Q 488 878 497 964 
Q 506 1050 525 1153 
L 897 3053 
L 409 3053 
L 500 3500 
L 978 3500 
L 1172 4494 
L 1747 4494 
L 1556 3500 
L 2706 3500 
z
" id="DejaVuSans-Oblique-74" transform="scale(0.015625)"/>
     </defs>
     <use transform="translate(0 0.015625)" xlink:href="#DejaVuSans-74"/>
     <use transform="translate(39.208984 0.015625)" xlink:href="#DejaVuSans-69"/>
     <use transform="translate(66.992188 0.015625)" xlink:href="#DejaVuSans-6d"/>
     <use transform="translate(164.404297 0.015625)" xlink:href="#DejaVuSans-65"/>
     <use transform="translate(225.927734 0.015625)" xlink:href="#DejaVuSans-20"/>
     <use transform="translate(257.714844 0.015625)" xlink:href="#DejaVuSans-73"/>
     <use transform="translate(309.814453 0.015625)" xlink:href="#DejaVuSans-70"/>
     <use transform="translate(373.291016 0.015625)" xlink:href="#DejaVuSans-61"/>
     <use transform="translate(434.570312 0.015625)" xlink:href="#DejaVuSans-63"/>
     <use transform="translate(489.550781 0.015625)" xlink:href="#DejaVuSans-69"/>
     <use transform="translate(517.333984 0.015625)" xlink:href="#DejaVuSans-6e"/>
     <use transform="translate(580.712891 0.015625)" xlink:href="#DejaVuSans-67"/>
     <use transform="translate(644.189453 0.015625)" xlink:href="#DejaVuSans-3a"/>
     <use transform="translate(677.880859 0.015625)" xlink:href="#DejaVuSans-20"/>
     <use transform="translate(709.667969 0.015625)" xlink:href="#DejaVuSans-394"/>
     <use transform="translate(778.076172 0.015625)" xlink:href="#DejaVuSans-Oblique-74"/>
    </g>
   </g>
   <g id="text_6">
    <!-- freq spacing: $1/(N\Delta t)$ -->
    <g style="fill:#ffa500;" transform="translate(172.8 597.6)scale(0.1 -0.1)">
     <defs>
      <path d="M 1984 4856 
Q 1566 4138 1362 3434 
Q 1159 2731 1159 2009 
Q 1159 1288 1364 580 
Q 1569 -128 1984 -844 
L 1484 -844 
Q 1016 -109 783 600 
Q 550 1309 550 2009 
Q 550 2706 781 3412 
Q 1013 4119 1484 4856 
L 1984 4856 
z
" id="DejaVuSans-28" transform="scale(0.015625)"/>
      <path d="M 1081 4666 
L 1931 4666 
L 3219 666 
L 4000 4666 
L 4616 4666 
L 3706 0 
L 2853 0 
L 1569 4025 
L 788 0 
L 172 0 
L 1081 4666 
z
" id="DejaVuSans-Oblique-4e" transform="scale(0.015625)"/>
      <path d="M 513 4856 
L 1013 4856 
Q 1481 4119 1714 3412 
Q 1947 2706 1947 2009 
Q 1947 1309 1714 600 
Q 1481 -109 1013 -844 
L 513 -844 
Q 928 -128 1133 580 
Q 1338 1288 1338 2009 
Q 1338 2731 1133 3434 
Q 928 4138 513 4856 
z
" id="DejaVuSans-29" transform="scale(0.015625)"/>
     </defs>
     <use transform="translate(0 0.015625)" xlink:href="#DejaVuSans-66"/>
     <use transform="translate(35.205078 0.015625)" xlink:href="#DejaVuSans-72"/>
     <use transform="translate(76.318359 0.015625)" xlink:href="#DejaVuSans-65"/>
     <use transform="translate(137.841797 0.015625)" xlink:href="#DejaVuSans-71"/>
     <use transform="translate(201.318359 0.015625)" xlink:href="#DejaVuSans-20"/>
     <use transform="translate(233.105469 0.015625)" xlink:href="#DejaVuSans-73"/>
     <use transform="translate(285.205078 0.015625)" xlink:href="#DejaVuSans-70"/>
     <use transform="translate(348.681641 0.015625)" xlink:href="#DejaVuSans-61"/>
     <use transform="translate(409.960938 0.015625)" xlink:href="#DejaVuSans-63"/>
     <use transform="translate(464.941406 0.015625)" xlink:href="#DejaVuSans-69"/>
     <use transform="translate(492.724609 0.015625)" xlink:href="#DejaVuSans-6e"/>
     <use transform="translate(556.103516 0.015625)" xlink:href="#DejaVuSans-67"/>
     <use transform="translate(619.580078 0.015625)" xlink:href="#DejaVuSans-3a"/>
     <use transform="translate(653.271484 0.015625)" xlink:href="#DejaVuSans-20"/>
     <use transform="translate(685.058594 0.015625)" xlink:href="#DejaVuSans-31"/>
     <use transform="translate(748.681641 0.015625)" xlink:href="#DejaVuSans-2f"/>
     <use transform="translate(782.373047 0.015625)" xlink:href="#DejaVuSans-28"/>
     <use transform="translate(821.386719 0.015625)" xlink:href="#DejaVuSans-Oblique-4e"/>
     <use transform="translate(896.191406 0.015625)" xlink:href="#DejaVuSans-394"/>
     <use transform="translate(964.599609 0.015625)" xlink:href="#DejaVuSans-Oblique-74"/>
     <use transform="translate(1003.808594 0.015625)" xlink:href="#DejaVuSans-29"/>
    </g>
   </g>
   <g id="text_7">
    <!-- Fourier transform -->
    <g transform="translate(506.24125 36)scale(0.16 -0.16)">
     <use xlink:href="#DejaVuSans-46"/>
     <use x="53.894531" xlink:href="#DejaVuSans-6f"/>
     <use x="115.076172" xlink:href="#DejaVuSans-75"/>
     <use x="178.455078" xlink:href="#DejaVuSans-72"/>
     <use x="219.568359" xlink:href="#DejaVuSans-69"/>
     <use x="247.351562" xlink:href="#DejaVuSans-65"/>
     <use x="308.875" xlink:href="#DejaVuSans-72"/>
     <use x="349.988281" xlink:href="#DejaVuSans-20"/>
     <use x="381.775391" xlink:href="#DejaVuSans-74"/>
     <use x="420.984375" xlink:href="#DejaVuSans-72"/>
     <use x="462.097656" xlink:href="#DejaVuSans-61"/>
     <use x="523.376953" xlink:href="#DejaVuSans-6e"/>
     <use x="586.755859" xlink:href="#DejaVuSans-73"/>
     <use x="638.855469" xlink:href="#DejaVuSans-66"/>
     <use x="674.060547" xlink:href="#DejaVuSans-6f"/>
     <use x="735.242188" xlink:href="#DejaVuSans-72"/>
     <use x="774.605469" xlink:href="#DejaVuSans-6d"/>
    </g>
   </g>
   <g id="text_8">
    <!-- Discrete Nonperiodic Time -->
    <g transform="translate(470.245 417.6)scale(0.16 -0.16)">
     <defs>
      <path d="M 628 4666 
L 1478 4666 
L 3547 763 
L 3547 4666 
L 4159 4666 
L 4159 0 
L 3309 0 
L 1241 3903 
L 1241 0 
L 628 0 
L 628 4666 
z
" id="DejaVuSans-4e" transform="scale(0.015625)"/>
     </defs>
     <use xlink:href="#DejaVuSans-44"/>
     <use x="77.001953" xlink:href="#DejaVuSans-69"/>
     <use x="104.785156" xlink:href="#DejaVuSans-73"/>
     <use x="156.884766" xlink:href="#DejaVuSans-63"/>
     <use x="211.865234" xlink:href="#DejaVuSans-72"/>
     <use x="250.728516" xlink:href="#DejaVuSans-65"/>
     <use x="312.251953" xlink:href="#DejaVuSans-74"/>
     <use x="351.460938" xlink:href="#DejaVuSans-65"/>
     <use x="412.984375" xlink:href="#DejaVuSans-20"/>
     <use x="444.771484" xlink:href="#DejaVuSans-4e"/>
     <use x="519.576172" xlink:href="#DejaVuSans-6f"/>
     <use x="580.757812" xlink:href="#DejaVuSans-6e"/>
     <use x="644.136719" xlink:href="#DejaVuSans-70"/>
     <use x="707.613281" xlink:href="#DejaVuSans-65"/>
     <use x="769.136719" xlink:href="#DejaVuSans-72"/>
     <use x="810.25" xlink:href="#DejaVuSans-69"/>
     <use x="838.033203" xlink:href="#DejaVuSans-6f"/>
     <use x="899.214844" xlink:href="#DejaVuSans-64"/>
     <use x="962.691406" xlink:href="#DejaVuSans-69"/>
     <use x="990.474609" xlink:href="#DejaVuSans-63"/>
     <use x="1045.455078" xlink:href="#DejaVuSans-20"/>
     <use x="1077.242188" xlink:href="#DejaVuSans-54"/>
     <use x="1135.201172" xlink:href="#DejaVuSans-69"/>
     <use x="1162.984375" xlink:href="#DejaVuSans-6d"/>
     <use x="1260.396484" xlink:href="#DejaVuSans-65"/>
    </g>
   </g>
   <g id="text_9">
    <!-- time spacing: $\Delta t$ -->
    <g style="fill:#008080;" transform="translate(576 489.6)scale(0.1 -0.1)">
     <use transform="translate(0 0.015625)" xlink:href="#DejaVuSans-74"/>
     <use transform="translate(39.208984 0.015625)" xlink:href="#DejaVuSans-69"/>
     <use transform="translate(66.992188 0.015625)" xlink:href="#DejaVuSans-6d"/>
     <use transform="translate(164.404297 0.015625)" xlink:href="#DejaVuSans-65"/>
     <use transform="translate(225.927734 0.015625)" xlink:href="#DejaVuSans-20"/>
     <use transform="translate(257.714844 0.015625)" xlink:href="#DejaVuSans-73"/>
     <use transform="translate(309.814453 0.015625)" xlink:href="#DejaVuSans-70"/>
     <use transform="translate(373.291016 0.015625)" xlink:href="#DejaVuSans-61"/>
     <use transform="translate(434.570312 0.015625)" xlink:href="#DejaVuSans-63"/>
     <use transform="translate(489.550781 0.015625)" xlink:href="#DejaVuSans-69"/>
     <use transform="translate(517.333984 0.015625)" xlink:href="#DejaVuSans-6e"/>
     <use transform="translate(580.712891 0.015625)" xlink:href="#DejaVuSans-67"/>
     <use transform="translate(644.189453 0.015625)" xlink:href="#DejaVuSans-3a"/>
     <use transform="translate(677.880859 0.015625)" xlink:href="#DejaVuSans-20"/>
     <use transform="translate(709.667969 0.015625)" xlink:href="#DejaVuSans-394"/>
     <use transform="translate(778.076172 0.015625)" xlink:href="#DejaVuSans-Oblique-74"/>
    </g>
   </g>
   <g id="text_10">
    <!-- ? -->
    <g transform="translate(566.445938 612)scale(0.36 -0.36)">
     <defs>
      <path d="M 1222 794 
L 1856 794 
L 1856 0 
L 1222 0 
L 1222 794 
z
M 1838 1253 
L 1241 1253 
L 1241 1734 
Q 1241 2050 1328 2253 
Q 1416 2456 1697 2725 
L 1978 3003 
Q 2156 3169 2236 3316 
Q 2316 3463 2316 3616 
Q 2316 3894 2111 4066 
Q 1906 4238 1569 4238 
Q 1322 4238 1042 4128 
Q 763 4019 459 3809 
L 459 4397 
Q 753 4575 1054 4662 
Q 1356 4750 1678 4750 
Q 2253 4750 2601 4447 
Q 2950 4144 2950 3647 
Q 2950 3409 2837 3195 
Q 2725 2981 2444 2713 
L 2169 2444 
Q 2022 2297 1961 2214 
Q 1900 2131 1875 2053 
Q 1856 1988 1847 1894 
Q 1838 1800 1838 1638 
L 1838 1253 
z
" id="DejaVuSans-3f" transform="scale(0.015625)"/>
     </defs>
     <use xlink:href="#DejaVuSans-3f"/>
    </g>
   </g>
  </g>
 </g>
 <defs>
  <clipPath id="pb4303acec3">
   <rect height="720" width="720" x="0" y="0"/>
  </clipPath>
 </defs>
</svg>
