<?xml version="1.0" encoding="utf-8" standalone="no"?>
<!DOCTYPE svg PUBLIC "-//W3C//DTD SVG 1.1//EN"
  "http://www.w3.org/Graphics/SVG/1.1/DTD/svg11.dtd">
<svg height="216pt" version="1.1" viewBox="0 0 288 216" width="288pt" xmlns="http://www.w3.org/2000/svg" xmlns:xlink="http://www.w3.org/1999/xlink">
 <metadata>
  <rdf:RDF xmlns:cc="http://creativecommons.org/ns#" xmlns:dc="http://purl.org/dc/elements/1.1/" xmlns:rdf="http://www.w3.org/1999/02/22-rdf-syntax-ns#">
   <cc:Work>
    <dc:type rdf:resource="http://purl.org/dc/dcmitype/StillImage"/>
    <dc:date>2023-09-02T09:42:51.716117</dc:date>
    <dc:format>image/svg+xml</dc:format>
    <dc:creator>
     <cc:Agent>
      <dc:title>Matplotlib v3.4.3, https://matplotlib.org/</dc:title>
     </cc:Agent>
    </dc:creator>
   </cc:Work>
  </rdf:RDF>
 </metadata>
 <defs>
  <style type="text/css">*{stroke-linecap:butt;stroke-linejoin:round;}</style>
 </defs>
 <g id="figure_1">
  <g id="patch_1">
   <path d="M 0 216 
L 288 216 
L 288 0 
L 0 0 
z
" style="fill:none;"/>
  </g>
  <g id="axes_1">
   <g id="patch_2">
    <path d="M 0 216 
L 288 216 
L 288 0 
L 0 0 
z
" style="fill:#ffffff;"/>
   </g>
   <g id="matplotlib.axis_1">
    <g id="xtick_1"/>
    <g id="xtick_2"/>
    <g id="xtick_3"/>
    <g id="xtick_4"/>
    <g id="xtick_5"/>
    <g id="xtick_6"/>
    <g id="xtick_7"/>
    <g id="xtick_8"/>
    <g id="xtick_9"/>
   </g>
   <g id="matplotlib.axis_2">
    <g id="ytick_1"/>
    <g id="ytick_2"/>
    <g id="ytick_3"/>
    <g id="ytick_4"/>
    <g id="ytick_5"/>
    <g id="ytick_6"/>
    <g id="ytick_7"/>
   </g>
   <g id="line2d_1">
    <path clip-path="url(#p57c50d59c5)" d="M 0 194.4 
L 2.909091 194.4 
L 5.818182 194.4 
L 8.727273 194.4 
L 11.636364 194.4 
L 14.545455 194.399999 
L 17.454545 194.399997 
L 20.363636 194.399992 
L 23.272727 194.399979 
L 26.181818 194.399943 
L 29.090909 194.399852 
L 32 194.399625 
L 34.909091 194.399081 
L 37.818182 194.397819 
L 40.727273 194.394987 
L 43.636364 194.38884 
L 46.545455 194.375936 
L 49.454545 194.349738 
L 52.363636 194.298312 
L 55.272727 194.200726 
L 58.181818 194.021746 
L 61.090909 193.704543 
L 64 193.161455 
L 66.909091 192.263479 
L 69.818182 190.830086 
L 72.727273 188.622177 
L 75.636364 185.342099 
L 78.545455 180.645354 
L 81.454545 174.168313 
L 84.363636 165.574368 
L 87.272727 154.617288 
L 90.181818 141.215427 
L 93.090909 125.524792 
L 96 107.994509 
L 98.909091 89.386822 
L 101.818182 70.746925 
L 104.727273 53.316043 
L 107.636364 38.393215 
L 110.545455 27.164246 
L 113.454545 20.526813 
L 116.363636 18.945182 
L 119.272727 22.364395 
L 122.181818 30.202657 
L 125.090909 41.424455 
L 128 54.680259 
L 130.909091 68.485802 
L 133.818182 81.408162 
L 136.727273 92.227969 
L 139.636364 100.055753 
L 142.545455 104.392301 
L 145.454545 105.134663 
L 148.363636 102.538031 
L 151.272727 97.147968 
L 154.181818 89.717488 
L 157.090909 81.120711 
L 160 72.270953 
L 162.909091 64.047644 
L 165.818182 57.234267 
L 168.727273 52.468613 
L 171.636364 50.206569 
L 174.545455 50.700862 
L 177.454545 53.995926 
L 180.363636 59.939254 
L 183.272727 68.208141 
L 186.181818 78.349042 
L 189.090909 89.825227 
L 192 102.067442 
L 194.909091 114.522086 
L 197.818182 126.692086 
L 200.727273 138.166972 
L 203.636364 148.64042 
L 206.545455 157.915304 
L 209.454545 165.897867 
L 212.363636 172.583663 
L 215.272727 178.038463 
L 218.181818 182.377242 
L 221.090909 185.743907 
L 224 188.293709 
L 226.909091 190.179433 
L 229.818182 191.541739 
L 232.727273 192.503422 
L 235.636364 193.16696 
L 238.545455 193.614545 
L 241.454545 193.909766 
L 244.363636 194.100206 
L 247.272727 194.220369 
L 250.181818 194.294543 
L 253.090909 194.339339 
L 256 194.365811 
L 258.909091 194.381121 
L 261.818182 194.389785 
L 264.727273 194.394585 
L 267.636364 194.397187 
L 270.545455 194.398568 
L 273.454545 194.399286 
L 276.363636 194.399651 
L 279.272727 194.399833 
L 282.181818 194.399922 
L 285.090909 194.399964 
L 288 194.399984 
" style="fill:none;stroke:#ffa500;stroke-linecap:square;stroke-width:1.5;"/>
   </g>
   <g id="line2d_2">
    <path clip-path="url(#p57c50d59c5)" d="M 36 194.4 
L 36 122.4 
L 252 122.4 
L 252 194.4 
" style="fill:none;stroke:#000000;stroke-linecap:square;stroke-width:2;"/>
   </g>
   <g id="line2d_3">
    <path clip-path="url(#p57c50d59c5)" d="M 36 194.4 
L 36 0 
" style="fill:none;stroke:#000000;stroke-linecap:square;stroke-width:0.5;"/>
   </g>
   <g id="line2d_4">
    <path clip-path="url(#p57c50d59c5)" d="M 252 194.4 
L 252 0 
" style="fill:none;stroke:#000000;stroke-linecap:square;stroke-width:0.5;"/>
   </g>
   <g id="line2d_5">
    <path clip-path="url(#p57c50d59c5)" d="M 0 194.4 
L 288 194.4 
" style="fill:none;stroke:#000000;stroke-linecap:square;stroke-width:0.5;"/>
   </g>
   <g id="patch_3">
    <path d="M 0 216 
L 0 0 
" style="fill:none;stroke:#000000;stroke-linecap:square;stroke-linejoin:miter;stroke-width:0.8;"/>
   </g>
   <g id="patch_4">
    <path d="M 288 216 
L 288 0 
" style="fill:none;stroke:#000000;stroke-linecap:square;stroke-linejoin:miter;stroke-width:0.8;"/>
   </g>
   <g id="patch_5">
    <path d="M 0 216 
L 288 216 
" style="fill:none;stroke:#000000;stroke-linecap:square;stroke-linejoin:miter;stroke-width:0.8;"/>
   </g>
   <g id="patch_6">
    <path d="M 0 0 
L 288 0 
" style="fill:none;stroke:#000000;stroke-linecap:square;stroke-linejoin:miter;stroke-width:0.8;"/>
   </g>
   <g id="text_1">
    <!-- a -->
    <g transform="translate(32.935938 207.36)scale(0.1 -0.1)">
     <defs>
      <path d="M 2194 1759 
Q 1497 1759 1228 1600 
Q 959 1441 959 1056 
Q 959 750 1161 570 
Q 1363 391 1709 391 
Q 2188 391 2477 730 
Q 2766 1069 2766 1631 
L 2766 1759 
L 2194 1759 
z
M 3341 1997 
L 3341 0 
L 2766 0 
L 2766 531 
Q 2569 213 2275 61 
Q 1981 -91 1556 -91 
Q 1019 -91 701 211 
Q 384 513 384 1019 
Q 384 1609 779 1909 
Q 1175 2209 1959 2209 
L 2766 2209 
L 2766 2266 
Q 2766 2663 2505 2880 
Q 2244 3097 1772 3097 
Q 1472 3097 1187 3025 
Q 903 2953 641 2809 
L 641 3341 
Q 956 3463 1253 3523 
Q 1550 3584 1831 3584 
Q 2591 3584 2966 3190 
Q 3341 2797 3341 1997 
z
" id="DejaVuSans-61" transform="scale(0.015625)"/>
     </defs>
     <use xlink:href="#DejaVuSans-61"/>
    </g>
   </g>
   <g id="text_2">
    <!-- b -->
    <g transform="translate(248.825781 207.36)scale(0.1 -0.1)">
     <defs>
      <path d="M 3116 1747 
Q 3116 2381 2855 2742 
Q 2594 3103 2138 3103 
Q 1681 3103 1420 2742 
Q 1159 2381 1159 1747 
Q 1159 1113 1420 752 
Q 1681 391 2138 391 
Q 2594 391 2855 752 
Q 3116 1113 3116 1747 
z
M 1159 2969 
Q 1341 3281 1617 3432 
Q 1894 3584 2278 3584 
Q 2916 3584 3314 3078 
Q 3713 2572 3713 1747 
Q 3713 922 3314 415 
Q 2916 -91 2278 -91 
Q 1894 -91 1617 61 
Q 1341 213 1159 525 
L 1159 0 
L 581 0 
L 581 4863 
L 1159 4863 
L 1159 2969 
z
" id="DejaVuSans-62" transform="scale(0.015625)"/>
     </defs>
     <use xlink:href="#DejaVuSans-62"/>
    </g>
   </g>
  </g>
 </g>
 <defs>
  <clipPath id="p57c50d59c5">
   <rect height="216" width="288" x="0" y="0"/>
  </clipPath>
 </defs>
</svg>
